<svg width="124" height="18" viewBox="0 0 124 18" fill="none" xmlns="http://www.w3.org/2000/svg">
<path d="M6.272 17.336C5.12 17.336 4.072 17.096 3.128 16.616C2.2 16.136 1.464 15.44 0.92 14.528C0.376 13.616 0.104 12.512 0.104 11.216V10.88C0.104 9.584 0.376 8.48 0.92 7.568C1.464 6.656 2.2 5.96 3.128 5.48C4.072 5 5.12 4.76 6.272 4.76C7.408 4.76 8.384 4.96 9.2 5.36C10.016 5.76 10.672 6.312 11.168 7.016C11.68 7.704 12.016 8.488 12.176 9.368L9.248 9.992C9.184 9.512 9.04 9.08 8.816 8.696C8.592 8.312 8.272 8.008 7.856 7.784C7.456 7.56 6.952 7.448 6.344 7.448C5.736 7.448 5.184 7.584 4.688 7.856C4.208 8.112 3.824 8.504 3.536 9.032C3.264 9.544 3.128 10.176 3.128 10.928V11.168C3.128 11.92 3.264 12.56 3.536 13.088C3.824 13.6 4.208 13.992 4.688 14.264C5.184 14.52 5.736 14.648 6.344 14.648C7.256 14.648 7.944 14.416 8.408 13.952C8.888 13.472 9.192 12.848 9.32 12.08L12.248 12.776C12.04 13.624 11.68 14.4 11.168 15.104C10.672 15.792 10.016 16.336 9.2 16.736C8.384 17.136 7.408 17.336 6.272 17.336ZM14.7425 17V0.199999H17.7665V6.56H18.1985C18.3265 6.304 18.5265 6.048 18.7985 5.792C19.0705 5.536 19.4305 5.328 19.8785 5.168C20.3425 4.992 20.9265 4.904 21.6305 4.904C22.5585 4.904 23.3665 5.12 24.0545 5.552C24.7585 5.968 25.3025 6.552 25.6865 7.304C26.0705 8.04 26.2625 8.904 26.2625 9.896V17H23.2385V10.136C23.2385 9.24 23.0145 8.568 22.5665 8.12C22.1345 7.672 21.5105 7.448 20.6945 7.448C19.7665 7.448 19.0465 7.76 18.5345 8.384C18.0225 8.992 17.7665 9.848 17.7665 10.952V17H14.7425ZM35.1956 17.336C34.0116 17.336 32.9476 17.096 32.0036 16.616C31.0596 16.136 30.3156 15.44 29.7716 14.528C29.2276 13.616 28.9556 12.52 28.9556 11.24V10.856C28.9556 9.576 29.2276 8.48 29.7716 7.568C30.3156 6.656 31.0596 5.96 32.0036 5.48C32.9476 5 34.0116 4.76 35.1956 4.76C36.3796 4.76 37.4436 5 38.3876 5.48C39.3316 5.96 40.0756 6.656 40.6196 7.568C41.1636 8.48 41.4356 9.576 41.4356 10.856V11.24C41.4356 12.52 41.1636 13.616 40.6196 14.528C40.0756 15.44 39.3316 16.136 38.3876 16.616C37.4436 17.096 36.3796 17.336 35.1956 17.336ZM35.1956 14.648C36.1236 14.648 36.8916 14.352 37.4996 13.76C38.1076 13.152 38.4116 12.288 38.4116 11.168V10.928C38.4116 9.808 38.1076 8.952 37.4996 8.36C36.9076 7.752 36.1396 7.448 35.1956 7.448C34.2676 7.448 33.4996 7.752 32.8916 8.36C32.2836 8.952 31.9796 9.808 31.9796 10.928V11.168C31.9796 12.288 32.2836 13.152 32.8916 13.76C33.4996 14.352 34.2676 14.648 35.1956 14.648ZM44.2269 17V5.096H47.2029V6.44H47.6349C47.8109 5.96 48.0989 5.608 48.4989 5.384C48.9149 5.16 49.3949 5.048 49.9389 5.048H51.3789V7.736H49.8909C49.1229 7.736 48.4909 7.944 47.9949 8.36C47.4989 8.76 47.2509 9.384 47.2509 10.232V17H44.2269ZM58.1206 17.336C57.1766 17.336 56.2886 17.104 55.4566 16.64C54.6406 16.16 53.9846 15.464 53.4886 14.552C52.9926 13.64 52.7446 12.536 52.7446 11.24V10.856C52.7446 9.56 52.9926 8.456 53.4886 7.544C53.9846 6.632 54.6406 5.944 55.4566 5.48C56.2726 5 57.1606 4.76 58.1206 4.76C58.8406 4.76 59.4406 4.848 59.9206 5.024C60.4166 5.184 60.8166 5.392 61.1206 5.648C61.4246 5.904 61.6566 6.176 61.8166 6.464H62.2486V0.199999H65.2726V17H62.2966V15.56H61.8646C61.5926 16.008 61.1686 16.416 60.5926 16.784C60.0326 17.152 59.2086 17.336 58.1206 17.336ZM59.0326 14.696C59.9606 14.696 60.7366 14.4 61.3606 13.808C61.9846 13.2 62.2966 12.32 62.2966 11.168V10.928C62.2966 9.776 61.9846 8.904 61.3606 8.312C60.7526 7.704 59.9766 7.4 59.0326 7.4C58.1046 7.4 57.3286 7.704 56.7046 8.312C56.0806 8.904 55.7686 9.776 55.7686 10.928V11.168C55.7686 12.32 56.0806 13.2 56.7046 13.808C57.3286 14.4 58.1046 14.696 59.0326 14.696Z" fill="#FFFAF7"/>
<path d="M74.2173 17.336C73.0653 17.336 72.0173 17.096 71.0733 16.616C70.1453 16.136 69.4093 15.44 68.8653 14.528C68.3213 13.616 68.0493 12.512 68.0493 11.216V10.88C68.0493 9.584 68.3213 8.48 68.8653 7.568C69.4093 6.656 70.1453 5.96 71.0733 5.48C72.0173 5 73.0653 4.76 74.2173 4.76C75.3533 4.76 76.3293 4.96 77.1453 5.36C77.9613 5.76 78.6173 6.312 79.1133 7.016C79.6253 7.704 79.9613 8.488 80.1213 9.368L77.1933 9.992C77.1293 9.512 76.9853 9.08 76.7613 8.696C76.5373 8.312 76.2173 8.008 75.8013 7.784C75.4013 7.56 74.8973 7.448 74.2893 7.448C73.6813 7.448 73.1293 7.584 72.6333 7.856C72.1533 8.112 71.7693 8.504 71.4813 9.032C71.2093 9.544 71.0733 10.176 71.0733 10.928V11.168C71.0733 11.92 71.2093 12.56 71.4813 13.088C71.7693 13.6 72.1533 13.992 72.6333 14.264C73.1293 14.52 73.6813 14.648 74.2893 14.648C75.2013 14.648 75.8893 14.416 76.3533 13.952C76.8333 13.472 77.1373 12.848 77.2653 12.08L80.1933 12.776C79.9853 13.624 79.6253 14.4 79.1133 15.104C78.6173 15.792 77.9613 16.336 77.1453 16.736C76.3293 17.136 75.3533 17.336 74.2173 17.336ZM82.6878 17V5.096H85.6638V6.44H86.0958C86.2718 5.96 86.5598 5.608 86.9598 5.384C87.3758 5.16 87.8558 5.048 88.3998 5.048H89.8398V7.736H88.3518C87.5838 7.736 86.9518 7.944 86.4558 8.36C85.9598 8.76 85.7118 9.384 85.7118 10.232V17H82.6878ZM95.6182 17.336C94.7702 17.336 94.0102 17.192 93.3382 16.904C92.6662 16.6 92.1302 16.168 91.7302 15.608C91.3462 15.032 91.1542 14.336 91.1542 13.52C91.1542 12.704 91.3462 12.024 91.7302 11.48C92.1302 10.92 92.6742 10.504 93.3622 10.232C94.0662 9.944 94.8662 9.8 95.7622 9.8H99.0262V9.128C99.0262 8.568 98.8502 8.112 98.4982 7.76C98.1462 7.392 97.5862 7.208 96.8182 7.208C96.0662 7.208 95.5062 7.384 95.1382 7.736C94.7702 8.072 94.5302 8.512 94.4182 9.056L91.6342 8.12C91.8262 7.512 92.1302 6.96 92.5462 6.464C92.9782 5.952 93.5462 5.544 94.2502 5.24C94.9702 4.92 95.8422 4.76 96.8662 4.76C98.4342 4.76 99.6742 5.152 100.586 5.936C101.498 6.72 101.954 7.856 101.954 9.344V13.784C101.954 14.264 102.178 14.504 102.626 14.504H103.586V17H101.57C100.978 17 100.49 16.856 100.106 16.568C99.7222 16.28 99.5302 15.896 99.5302 15.416V15.392H99.0742C99.0102 15.584 98.8662 15.84 98.6422 16.16C98.4182 16.464 98.0662 16.736 97.5862 16.976C97.1062 17.216 96.4502 17.336 95.6182 17.336ZM96.1462 14.888C96.9942 14.888 97.6822 14.656 98.2102 14.192C98.7542 13.712 99.0262 13.08 99.0262 12.296V12.056H95.9782C95.4182 12.056 94.9782 12.176 94.6582 12.416C94.3382 12.656 94.1782 12.992 94.1782 13.424C94.1782 13.856 94.3462 14.208 94.6822 14.48C95.0182 14.752 95.5062 14.888 96.1462 14.888ZM106.898 17V7.592H103.874V5.096H106.898V2.888C106.898 2.072 107.138 1.424 107.618 0.943999C108.114 0.447999 108.754 0.199999 109.538 0.199999H112.658V2.696H110.594C110.146 2.696 109.922 2.936 109.922 3.416V5.096H113.042V7.592H109.922V17H106.898ZM119.709 17C118.925 17 118.285 16.76 117.789 16.28C117.309 15.784 117.069 15.128 117.069 14.312V7.592H114.093V5.096H117.069V1.4H120.093V5.096H123.357V7.592H120.093V13.784C120.093 14.264 120.317 14.504 120.765 14.504H123.069V17H119.709Z" fill="#FF6500"/>
</svg>
