<svg width="453" height="265" viewBox="0 0 453 265" fill="none" xmlns="http://www.w3.org/2000/svg">
<circle cx="132.5" cy="132.5" r="132.5" fill="#585656"/>
<path d="M297.792 171.224C297.248 171.224 296.752 171.133 296.304 170.952C295.867 170.76 295.52 170.483 295.264 170.12C295.008 169.757 294.88 169.32 294.88 168.808C294.88 168.285 295.008 167.853 295.264 167.512C295.52 167.171 295.867 166.915 296.304 166.744C296.741 166.573 297.227 166.488 297.76 166.488H300.608V165.864C300.608 165.235 300.427 164.744 300.064 164.392C299.701 164.04 299.173 163.864 298.48 163.864C297.797 163.864 297.253 164.035 296.848 164.376C296.453 164.707 296.187 165.155 296.048 165.72L295.12 165.448C295.248 164.989 295.451 164.579 295.728 164.216C296.005 163.843 296.373 163.549 296.832 163.336C297.291 163.112 297.84 163 298.48 163C299.461 163 300.219 163.256 300.752 163.768C301.296 164.28 301.568 164.995 301.568 165.912V169.688C301.568 170.008 301.717 170.168 302.016 170.168H302.768V171H301.744C301.413 171 301.152 170.904 300.96 170.712C300.768 170.509 300.672 170.237 300.672 169.896V169.784H300.512C300.373 170.019 300.192 170.248 299.968 170.472C299.755 170.696 299.472 170.877 299.12 171.016C298.768 171.155 298.325 171.224 297.792 171.224ZM297.856 170.36C298.677 170.36 299.339 170.115 299.84 169.624C300.352 169.123 300.608 168.419 300.608 167.512V167.32H297.776C297.221 167.32 296.757 167.443 296.384 167.688C296.021 167.923 295.84 168.291 295.84 168.792C295.84 169.293 296.027 169.683 296.4 169.96C296.784 170.227 297.269 170.36 297.856 170.36ZM308.721 171V163.224H309.649V164.248H309.841C310.001 163.96 310.257 163.693 310.609 163.448C310.961 163.192 311.462 163.064 312.113 163.064C312.742 163.064 313.249 163.208 313.633 163.496C314.027 163.784 314.31 164.131 314.481 164.536H314.673C314.854 164.131 315.137 163.784 315.521 163.496C315.905 163.208 316.443 163.064 317.137 163.064C317.67 163.064 318.134 163.176 318.529 163.4C318.923 163.613 319.233 163.917 319.457 164.312C319.681 164.696 319.793 165.149 319.793 165.672V171H318.833V165.768C318.833 165.213 318.662 164.771 318.321 164.44C317.99 164.099 317.521 163.928 316.913 163.928C316.294 163.928 315.777 164.131 315.361 164.536C314.945 164.931 314.737 165.512 314.737 166.28V171H313.777V165.768C313.777 165.213 313.606 164.771 313.265 164.44C312.934 164.099 312.465 163.928 311.857 163.928C311.238 163.928 310.721 164.131 310.305 164.536C309.889 164.931 309.681 165.512 309.681 166.28V171H308.721ZM325.384 171.16C324.83 171.16 324.312 171.043 323.832 170.808C323.363 170.573 322.984 170.221 322.696 169.752C322.419 169.272 322.28 168.675 322.28 167.96V163.224H323.24V167.896C323.24 168.739 323.454 169.352 323.88 169.736C324.307 170.109 324.878 170.296 325.592 170.296C326.392 170.296 327.059 170.035 327.592 169.512C328.126 168.979 328.392 168.179 328.392 167.112V163.224H329.352V171H328.424V169.56H328.232C328.04 169.976 327.726 170.349 327.288 170.68C326.851 171 326.216 171.16 325.384 171.16ZM335.262 171.224C334.323 171.224 333.518 171 332.846 170.552C332.184 170.104 331.779 169.363 331.63 168.328L332.574 168.152C332.659 168.717 332.83 169.165 333.086 169.496C333.352 169.816 333.672 170.045 334.046 170.184C334.43 170.323 334.835 170.392 335.262 170.392C335.902 170.392 336.414 170.264 336.798 170.008C337.192 169.741 337.39 169.379 337.39 168.92C337.39 168.451 337.203 168.125 336.83 167.944C336.467 167.763 335.982 167.619 335.374 167.512L334.638 167.384C334.147 167.299 333.704 167.171 333.31 167C332.915 166.819 332.6 166.579 332.366 166.28C332.142 165.981 332.03 165.608 332.03 165.16C332.03 164.488 332.291 163.96 332.814 163.576C333.347 163.192 334.051 163 334.926 163C335.811 163 336.52 163.203 337.054 163.608C337.598 164.003 337.939 164.579 338.078 165.336L337.182 165.528C337.075 164.909 336.819 164.472 336.414 164.216C336.019 163.96 335.523 163.832 334.926 163.832C334.339 163.832 333.87 163.944 333.518 164.168C333.166 164.392 332.99 164.723 332.99 165.16C332.99 165.587 333.15 165.901 333.47 166.104C333.79 166.296 334.227 166.44 334.782 166.536L335.518 166.664C336.051 166.749 336.531 166.877 336.958 167.048C337.384 167.208 337.72 167.437 337.966 167.736C338.222 168.035 338.35 168.429 338.35 168.92C338.35 169.656 338.072 170.227 337.518 170.632C336.963 171.027 336.211 171.224 335.262 171.224ZM340.627 171V163.224H341.587V171H340.627ZM341.107 161.88C340.872 161.88 340.675 161.8 340.515 161.64C340.355 161.48 340.275 161.283 340.275 161.048C340.275 160.803 340.355 160.605 340.515 160.456C340.675 160.296 340.872 160.216 341.107 160.216C341.352 160.216 341.549 160.296 341.699 160.456C341.859 160.605 341.939 160.803 341.939 161.048C341.939 161.283 341.859 161.48 341.699 161.64C341.549 161.8 341.352 161.88 341.107 161.88ZM347.96 171.224C347.203 171.224 346.525 171.064 345.928 170.744C345.341 170.413 344.877 169.944 344.536 169.336C344.195 168.728 344.024 168.013 344.024 167.192V167.032C344.024 166.2 344.195 165.485 344.536 164.888C344.877 164.28 345.341 163.816 345.928 163.496C346.525 163.165 347.203 163 347.96 163C348.707 163 349.336 163.144 349.848 163.432C350.371 163.709 350.776 164.077 351.064 164.536C351.363 164.984 351.549 165.459 351.624 165.96L350.68 166.152C350.627 165.736 350.493 165.357 350.28 165.016C350.067 164.664 349.768 164.387 349.384 164.184C349 163.971 348.525 163.864 347.96 163.864C347.395 163.864 346.888 163.997 346.44 164.264C345.992 164.52 345.635 164.888 345.368 165.368C345.112 165.837 344.984 166.397 344.984 167.048V167.176C344.984 167.827 345.112 168.392 345.368 168.872C345.635 169.341 345.992 169.709 346.44 169.976C346.888 170.232 347.395 170.36 347.96 170.36C348.813 170.36 349.464 170.141 349.912 169.704C350.36 169.256 350.637 168.712 350.744 168.072L351.688 168.264C351.592 168.765 351.389 169.245 351.08 169.704C350.781 170.152 350.371 170.52 349.848 170.808C349.336 171.085 348.707 171.224 347.96 171.224ZM358.174 171V159.8H359.134V171H358.174ZM365.539 171.224C364.739 171.224 364.04 171.059 363.443 170.728C362.856 170.387 362.398 169.912 362.067 169.304C361.736 168.696 361.571 167.997 361.571 167.208V167.016C361.571 166.216 361.736 165.517 362.067 164.92C362.398 164.312 362.851 163.843 363.427 163.512C364.014 163.171 364.68 163 365.427 163C366.152 163 366.792 163.155 367.347 163.464C367.912 163.763 368.355 164.2 368.675 164.776C368.995 165.341 369.155 166.019 369.155 166.808V167.32H362.531C362.563 168.291 362.856 169.043 363.411 169.576C363.976 170.099 364.686 170.36 365.539 170.36C366.264 170.36 366.824 170.195 367.219 169.864C367.624 169.533 367.934 169.128 368.147 168.648L369.011 169.032C368.851 169.384 368.627 169.731 368.339 170.072C368.062 170.403 367.699 170.68 367.251 170.904C366.803 171.117 366.232 171.224 365.539 171.224ZM362.547 166.488H368.179C368.136 165.645 367.864 165 367.363 164.552C366.862 164.093 366.216 163.864 365.427 163.864C364.648 163.864 364.003 164.093 363.491 164.552C362.979 165 362.664 165.645 362.547 166.488ZM373.901 171.224C373.357 171.224 372.861 171.133 372.413 170.952C371.976 170.76 371.629 170.483 371.373 170.12C371.117 169.757 370.989 169.32 370.989 168.808C370.989 168.285 371.117 167.853 371.373 167.512C371.629 167.171 371.976 166.915 372.413 166.744C372.851 166.573 373.336 166.488 373.869 166.488H376.717V165.864C376.717 165.235 376.536 164.744 376.173 164.392C375.811 164.04 375.283 163.864 374.589 163.864C373.907 163.864 373.363 164.035 372.957 164.376C372.563 164.707 372.296 165.155 372.157 165.72L371.229 165.448C371.357 164.989 371.56 164.579 371.837 164.216C372.115 163.843 372.483 163.549 372.941 163.336C373.4 163.112 373.949 163 374.589 163C375.571 163 376.328 163.256 376.861 163.768C377.405 164.28 377.677 164.995 377.677 165.912V169.688C377.677 170.008 377.827 170.168 378.125 170.168H378.877V171H377.853C377.523 171 377.261 170.904 377.069 170.712C376.877 170.509 376.781 170.237 376.781 169.896V169.784H376.621C376.483 170.019 376.301 170.248 376.077 170.472C375.864 170.696 375.581 170.877 375.229 171.016C374.877 171.155 374.435 171.224 373.901 171.224ZM373.965 170.36C374.787 170.36 375.448 170.115 375.949 169.624C376.461 169.123 376.717 168.419 376.717 167.512V167.32H373.885C373.331 167.32 372.867 167.443 372.493 167.688C372.131 167.923 371.949 168.291 371.949 168.792C371.949 169.293 372.136 169.683 372.509 169.96C372.893 170.227 373.379 170.36 373.965 170.36ZM380.705 171V163.224H381.633V164.2H381.825C381.974 163.848 382.193 163.592 382.481 163.432C382.78 163.272 383.19 163.192 383.713 163.192H384.625V164.088H383.601C383.014 164.088 382.545 164.253 382.193 164.584C381.841 164.915 381.665 165.432 381.665 166.136V171H380.705ZM386.611 171V163.224H387.539V164.664H387.731C387.923 164.248 388.238 163.88 388.675 163.56C389.112 163.229 389.747 163.064 390.579 163.064C391.144 163.064 391.662 163.181 392.131 163.416C392.6 163.651 392.974 164.008 393.251 164.488C393.539 164.957 393.683 165.549 393.683 166.264V171H392.723V166.328C392.723 165.475 392.51 164.861 392.083 164.488C391.656 164.115 391.086 163.928 390.371 163.928C389.571 163.928 388.904 164.195 388.371 164.728C387.838 165.251 387.571 166.045 387.571 167.112V171H386.611ZM396.408 171V163.224H397.368V171H396.408ZM396.888 161.88C396.653 161.88 396.456 161.8 396.296 161.64C396.136 161.48 396.056 161.283 396.056 161.048C396.056 160.803 396.136 160.605 396.296 160.456C396.456 160.296 396.653 160.216 396.888 160.216C397.133 160.216 397.331 160.296 397.48 160.456C397.64 160.605 397.72 160.803 397.72 161.048C397.72 161.283 397.64 161.48 397.48 161.64C397.331 161.8 397.133 161.88 396.888 161.88ZM400.189 171V163.224H401.117V164.664H401.309C401.501 164.248 401.816 163.88 402.253 163.56C402.691 163.229 403.325 163.064 404.157 163.064C404.723 163.064 405.24 163.181 405.709 163.416C406.179 163.651 406.552 164.008 406.829 164.488C407.117 164.957 407.261 165.549 407.261 166.264V171H406.301V166.328C406.301 165.475 406.088 164.861 405.661 164.488C405.235 164.115 404.664 163.928 403.949 163.928C403.149 163.928 402.483 164.195 401.949 164.728C401.416 165.251 401.149 166.045 401.149 167.112V171H400.189ZM409.602 167.144V166.952C409.602 166.131 409.767 165.427 410.098 164.84C410.439 164.253 410.893 163.8 411.458 163.48C412.023 163.16 412.653 163 413.346 163C414.199 163 414.861 163.171 415.33 163.512C415.81 163.843 416.162 164.221 416.386 164.648H416.578V163.224H417.474V172.984C417.474 173.368 417.373 173.667 417.17 173.88C416.967 174.093 416.658 174.2 416.242 174.2H410.93V173.336H416.05C416.381 173.336 416.546 173.176 416.546 172.856V169.512H416.354C416.215 169.768 416.018 170.019 415.762 170.264C415.517 170.509 415.197 170.712 414.802 170.872C414.407 171.021 413.922 171.096 413.346 171.096C412.653 171.096 412.018 170.936 411.442 170.616C410.877 170.296 410.429 169.843 410.098 169.256C409.767 168.659 409.602 167.955 409.602 167.144ZM413.57 170.232C414.455 170.232 415.17 169.955 415.714 169.4C416.269 168.845 416.546 168.083 416.546 167.112V166.984C416.546 166.003 416.269 165.24 415.714 164.696C415.17 164.141 414.455 163.864 413.57 163.864C412.695 163.864 411.981 164.141 411.426 164.696C410.871 165.24 410.594 166.003 410.594 166.984V167.112C410.594 168.083 410.871 168.845 411.426 169.4C411.981 169.955 412.695 170.232 413.57 170.232ZM426.792 171.224C426.248 171.224 425.752 171.133 425.304 170.952C424.867 170.76 424.52 170.483 424.264 170.12C424.008 169.757 423.88 169.32 423.88 168.808C423.88 168.285 424.008 167.853 424.264 167.512C424.52 167.171 424.867 166.915 425.304 166.744C425.741 166.573 426.227 166.488 426.76 166.488H429.608V165.864C429.608 165.235 429.427 164.744 429.064 164.392C428.701 164.04 428.173 163.864 427.48 163.864C426.797 163.864 426.253 164.035 425.848 164.376C425.453 164.707 425.187 165.155 425.048 165.72L424.12 165.448C424.248 164.989 424.451 164.579 424.728 164.216C425.005 163.843 425.373 163.549 425.832 163.336C426.291 163.112 426.84 163 427.48 163C428.461 163 429.219 163.256 429.752 163.768C430.296 164.28 430.568 164.995 430.568 165.912V169.688C430.568 170.008 430.717 170.168 431.016 170.168H431.768V171H430.744C430.413 171 430.152 170.904 429.96 170.712C429.768 170.509 429.672 170.237 429.672 169.896V169.784H429.512C429.373 170.019 429.192 170.248 428.968 170.472C428.755 170.696 428.472 170.877 428.12 171.016C427.768 171.155 427.325 171.224 426.792 171.224ZM426.856 170.36C427.677 170.36 428.339 170.115 428.84 169.624C429.352 169.123 429.608 168.419 429.608 167.512V167.32H426.776C426.221 167.32 425.757 167.443 425.384 167.688C425.021 167.923 424.84 168.291 424.84 168.792C424.84 169.293 425.027 169.683 425.4 169.96C425.784 170.227 426.269 170.36 426.856 170.36ZM433.596 174.2V163.224H434.524V164.648H434.716C434.94 164.221 435.286 163.843 435.756 163.512C436.236 163.171 436.902 163 437.756 163C438.449 163 439.078 163.165 439.644 163.496C440.209 163.816 440.657 164.275 440.988 164.872C441.329 165.469 441.5 166.184 441.5 167.016V167.208C441.5 168.029 441.334 168.744 441.003 169.352C440.673 169.949 440.225 170.413 439.66 170.744C439.094 171.064 438.46 171.224 437.756 171.224C437.19 171.224 436.705 171.149 436.299 171C435.905 170.84 435.58 170.637 435.324 170.392C435.078 170.147 434.886 169.896 434.748 169.64H434.556V174.2H433.596ZM437.532 170.36C438.417 170.36 439.132 170.077 439.676 169.512C440.23 168.947 440.508 168.168 440.508 167.176V167.048C440.508 166.056 440.23 165.277 439.676 164.712C439.132 164.147 438.417 163.864 437.532 163.864C436.657 163.864 435.942 164.147 435.388 164.712C434.833 165.277 434.556 166.056 434.556 167.048V167.176C434.556 168.168 434.833 168.947 435.388 169.512C435.942 170.077 436.657 170.36 437.532 170.36ZM443.939 174.2V163.224H444.867V164.648H445.059C445.283 164.221 445.63 163.843 446.099 163.512C446.579 163.171 447.246 163 448.099 163C448.793 163 449.422 163.165 449.987 163.496C450.553 163.816 451.001 164.275 451.331 164.872C451.673 165.469 451.843 166.184 451.843 167.016V167.208C451.843 168.029 451.678 168.744 451.347 169.352C451.017 169.949 450.569 170.413 450.003 170.744C449.438 171.064 448.803 171.224 448.099 171.224C447.534 171.224 447.049 171.149 446.643 171C446.249 170.84 445.923 170.637 445.667 170.392C445.422 170.147 445.23 169.896 445.091 169.64H444.899V174.2H443.939ZM447.875 170.36C448.761 170.36 449.475 170.077 450.019 169.512C450.574 168.947 450.851 168.168 450.851 167.176V167.048C450.851 166.056 450.574 165.277 450.019 164.712C449.475 164.147 448.761 163.864 447.875 163.864C447.001 163.864 446.286 164.147 445.731 164.712C445.177 165.277 444.899 166.056 444.899 167.048V167.176C444.899 168.168 445.177 168.947 445.731 169.512C446.286 170.077 447.001 170.36 447.875 170.36Z" fill="#FFFAF7"/>
<path d="M52.543 156.134C48.655 156.134 45.118 155.324 41.932 153.704C38.8 152.084 36.316 149.735 34.48 146.657C32.644 143.579 31.726 139.853 31.726 135.479V134.345C31.726 129.971 32.644 126.245 34.48 123.167C36.316 120.089 38.8 117.74 41.932 116.12C45.118 114.5 48.655 113.69 52.543 113.69C56.377 113.69 59.671 114.365 62.425 115.715C65.179 117.065 67.393 118.928 69.067 121.304C70.795 123.626 71.929 126.272 72.469 129.242L62.587 131.348C62.371 129.728 61.885 128.27 61.129 126.974C60.373 125.678 59.293 124.652 57.889 123.896C56.539 123.14 54.838 122.762 52.786 122.762C50.734 122.762 48.871 123.221 47.197 124.139C45.577 125.003 44.281 126.326 43.309 128.108C42.391 129.836 41.932 131.969 41.932 134.507V135.317C41.932 137.855 42.391 140.015 43.309 141.797C44.281 143.525 45.577 144.848 47.197 145.766C48.871 146.63 50.734 147.062 52.786 147.062C55.864 147.062 58.186 146.279 59.752 144.713C61.372 143.093 62.398 140.987 62.83 138.395L72.712 140.744C72.01 143.606 70.795 146.225 69.067 148.601C67.393 150.923 65.179 152.759 62.425 154.109C59.671 155.459 56.377 156.134 52.543 156.134ZM81.1309 155V98.3H91.3369V119.765H92.7949C93.2269 118.901 93.9019 118.037 94.8199 117.173C95.7379 116.309 96.9529 115.607 98.4649 115.067C100.031 114.473 102.002 114.176 104.378 114.176C107.51 114.176 110.237 114.905 112.559 116.363C114.935 117.767 116.771 119.738 118.067 122.276C119.363 124.76 120.011 127.676 120.011 131.024V155H109.805V131.834C109.805 128.81 109.049 126.542 107.537 125.03C106.079 123.518 103.973 122.762 101.219 122.762C98.0869 122.762 95.6569 123.815 93.9289 125.921C92.2009 127.973 91.3369 130.862 91.3369 134.588V155H81.1309ZM150.16 156.134C146.164 156.134 142.573 155.324 139.387 153.704C136.201 152.084 133.69 149.735 131.854 146.657C130.018 143.579 129.1 139.88 129.1 135.56V134.264C129.1 129.944 130.018 126.245 131.854 123.167C133.69 120.089 136.201 117.74 139.387 116.12C142.573 114.5 146.164 113.69 150.16 113.69C154.156 113.69 157.747 114.5 160.933 116.12C164.119 117.74 166.63 120.089 168.466 123.167C170.302 126.245 171.22 129.944 171.22 134.264V135.56C171.22 139.88 170.302 143.579 168.466 146.657C166.63 149.735 164.119 152.084 160.933 153.704C157.747 155.324 154.156 156.134 150.16 156.134ZM150.16 147.062C153.292 147.062 155.884 146.063 157.936 144.065C159.988 142.013 161.014 139.097 161.014 135.317V134.507C161.014 130.727 159.988 127.838 157.936 125.84C155.938 123.788 153.346 122.762 150.16 122.762C147.028 122.762 144.436 123.788 142.384 125.84C140.332 127.838 139.306 130.727 139.306 134.507V135.317C139.306 139.097 140.332 142.013 142.384 144.065C144.436 146.063 147.028 147.062 150.16 147.062ZM180.641 155V114.824H190.685V119.36H192.143C192.737 117.74 193.709 116.552 195.059 115.796C196.463 115.04 198.083 114.662 199.919 114.662H204.779V123.734H199.757C197.165 123.734 195.032 124.436 193.358 125.84C191.684 127.19 190.847 129.296 190.847 132.158V155H180.641ZM227.532 156.134C224.346 156.134 221.349 155.351 218.541 153.785C215.787 152.165 213.573 149.816 211.899 146.738C210.225 143.66 209.388 139.934 209.388 135.56V134.264C209.388 129.89 210.225 126.164 211.899 123.086C213.573 120.008 215.787 117.686 218.541 116.12C221.295 114.5 224.292 113.69 227.532 113.69C229.962 113.69 231.987 113.987 233.607 114.581C235.281 115.121 236.631 115.823 237.657 116.687C238.683 117.551 239.466 118.469 240.006 119.441H241.464V98.3H251.67V155H241.626V150.14H240.168C239.25 151.652 237.819 153.029 235.875 154.271C233.985 155.513 231.204 156.134 227.532 156.134ZM230.61 147.224C233.742 147.224 236.361 146.225 238.467 144.227C240.573 142.175 241.626 139.205 241.626 135.317V134.507C241.626 130.619 240.573 127.676 238.467 125.678C236.415 123.626 233.796 122.6 230.61 122.6C227.478 122.6 224.859 123.626 222.753 125.678C220.647 127.676 219.594 130.619 219.594 134.507V135.317C219.594 139.205 220.647 142.175 222.753 144.227C224.859 146.225 227.478 147.224 230.61 147.224Z" fill="#FFFAF7"/>
<path d="M281.858 156.134C277.97 156.134 274.433 155.324 271.247 153.704C268.115 152.084 265.631 149.735 263.795 146.657C261.959 143.579 261.041 139.853 261.041 135.479V134.345C261.041 129.971 261.959 126.245 263.795 123.167C265.631 120.089 268.115 117.74 271.247 116.12C274.433 114.5 277.97 113.69 281.858 113.69C285.692 113.69 288.986 114.365 291.74 115.715C294.494 117.065 296.708 118.928 298.382 121.304C300.11 123.626 301.244 126.272 301.784 129.242L291.902 131.348C291.686 129.728 291.2 128.27 290.444 126.974C289.688 125.678 288.608 124.652 287.204 123.896C285.854 123.14 284.153 122.762 282.101 122.762C280.049 122.762 278.186 123.221 276.512 124.139C274.892 125.003 273.596 126.326 272.624 128.108C271.706 129.836 271.247 131.969 271.247 134.507V135.317C271.247 137.855 271.706 140.015 272.624 141.797C273.596 143.525 274.892 144.848 276.512 145.766C278.186 146.63 280.049 147.062 282.101 147.062C285.179 147.062 287.501 146.279 289.067 144.713C290.687 143.093 291.713 140.987 292.145 138.395L302.027 140.744C301.325 143.606 300.11 146.225 298.382 148.601C296.708 150.923 294.494 152.759 291.74 154.109C288.986 155.459 285.692 156.134 281.858 156.134ZM310.446 155V114.824H320.49V119.36H321.948C322.542 117.74 323.514 116.552 324.864 115.796C326.268 115.04 327.888 114.662 329.724 114.662H334.584V123.734H329.562C326.97 123.734 324.837 124.436 323.163 125.84C321.489 127.19 320.652 129.296 320.652 132.158V155H310.446ZM354.086 156.134C351.224 156.134 348.659 155.648 346.391 154.676C344.123 153.65 342.314 152.192 340.964 150.302C339.668 148.358 339.02 146.009 339.02 143.255C339.02 140.501 339.668 138.206 340.964 136.37C342.314 134.48 344.15 133.076 346.472 132.158C348.848 131.186 351.548 130.7 354.572 130.7H365.588V128.432C365.588 126.542 364.994 125.003 363.806 123.815C362.618 122.573 360.728 121.952 358.136 121.952C355.598 121.952 353.708 122.546 352.466 123.734C351.224 124.868 350.414 126.353 350.036 128.189L340.64 125.03C341.288 122.978 342.314 121.115 343.718 119.441C345.176 117.713 347.093 116.336 349.469 115.31C351.899 114.23 354.842 113.69 358.298 113.69C363.59 113.69 367.775 115.013 370.853 117.659C373.931 120.305 375.47 124.139 375.47 129.161V144.146C375.47 145.766 376.226 146.576 377.738 146.576H380.978V155H374.174C372.176 155 370.529 154.514 369.233 153.542C367.937 152.57 367.289 151.274 367.289 149.654V149.573H365.75C365.534 150.221 365.048 151.085 364.292 152.165C363.536 153.191 362.348 154.109 360.728 154.919C359.108 155.729 356.894 156.134 354.086 156.134ZM355.868 147.872C358.73 147.872 361.052 147.089 362.834 145.523C364.67 143.903 365.588 141.77 365.588 139.124V138.314H355.301C353.411 138.314 351.926 138.719 350.846 139.529C349.766 140.339 349.226 141.473 349.226 142.931C349.226 144.389 349.793 145.577 350.927 146.495C352.061 147.413 353.708 147.872 355.868 147.872ZM392.156 155V123.248H381.95V114.824H392.156V107.372C392.156 104.618 392.966 102.431 394.586 100.811C396.26 99.137 398.42 98.3 401.066 98.3H411.596V106.724H404.63C403.118 106.724 402.362 107.534 402.362 109.154V114.824H412.892V123.248H402.362V155H392.156ZM435.392 155C432.746 155 430.586 154.19 428.912 152.57C427.292 150.896 426.482 148.682 426.482 145.928V123.248H416.438V114.824H426.482V102.35H436.688V114.824H447.704V123.248H436.688V144.146C436.688 145.766 437.444 146.576 438.956 146.576H446.732V155H435.392Z" fill="#FF6500"/>
</svg>
