<svg width="464" height="300" viewBox="0 0 464 300" fill="none" xmlns="http://www.w3.org/2000/svg">
<path d="M15.1058 230.3C15.1058 217.477 21.0192 209.821 30.6052 209.821C37.39 209.821 42.8054 212.933 44.6728 220.776L58.3047 216.979C55.1924 204.406 44.7973 197.621 30.6052 197.621C11.4333 197.621 0.726944 211.377 0.726944 230.3C0.726944 249.223 11.869 262.979 31.0409 262.979C46.1045 262.979 54.5077 255.759 58.3047 243.745L44.6728 239.886C42.4942 247.293 37.8257 250.779 31.0409 250.779C21.4549 250.779 15.1058 243.123 15.1058 230.3ZM79.6552 261.672V237.023C79.6552 229.678 83.4522 226.005 87.934 226.005C93.0382 226.005 94.9055 228.993 94.9055 234.222V261.672H107.977V233.848C107.977 223.08 104.056 215.05 91.5442 215.05C86.1288 215.05 82.7053 217.042 79.6552 222.021V198.928H66.5835V261.672H79.6552ZM114.949 239.015C114.949 255.759 125.344 262.979 137.482 262.979C149.558 262.979 159.953 255.759 159.953 239.015C159.953 222.27 149.558 215.05 137.482 215.05C125.344 215.05 114.949 222.27 114.949 239.015ZM128.021 239.015C128.021 230.549 131.444 225.943 137.482 225.943C143.458 225.943 146.881 230.549 146.881 239.015C146.881 247.48 143.458 252.086 137.482 252.086C131.444 252.086 128.021 247.48 128.021 239.015ZM179.996 261.672V241.567C179.996 232.728 183.731 227.25 191.201 227.25C193.939 227.25 195.931 228.121 197.674 228.993L199.604 217.291C197.487 215.672 195.06 215.05 191.574 215.05C185.038 215.05 182.05 218.1 179.187 224.2V216.357H166.924V261.672H179.996ZM232.283 198.928V220.278C229.669 216.17 225.374 215.05 221.701 215.05C210.933 215.05 201.782 223.142 201.782 239.015C201.782 254.887 210.497 262.979 221.265 262.979C226.432 262.979 230.54 260.739 233.154 256.381V261.672H245.355V198.928H232.283ZM233.217 239.015C233.217 247.916 229.108 252.086 224.004 252.086C218.838 252.086 214.854 247.916 214.854 239.015C214.854 230.113 218.527 225.943 224.067 225.943C229.669 225.943 233.217 230.113 233.217 239.015ZM268.012 230.3C268.012 217.477 273.926 209.821 283.512 209.821C290.297 209.821 295.712 212.933 297.517 220.776L311.211 216.979C308.099 204.406 297.704 197.621 283.512 197.621C264.34 197.621 253.634 211.377 253.634 230.3C253.634 249.223 264.776 262.979 283.947 262.979C299.011 262.979 307.414 255.759 311.211 243.745L297.517 239.886C295.339 247.293 290.732 250.779 283.947 250.779C274.362 250.779 268.012 243.123 268.012 230.3ZM331.69 261.672V241.567C331.69 232.728 335.425 227.25 342.957 227.25C345.633 227.25 347.625 228.121 349.368 228.993L351.298 217.291C349.244 215.672 346.754 215.05 343.268 215.05C336.732 215.05 333.807 218.1 330.943 224.2V216.357H318.619V261.672H331.69ZM381.985 256.941C382.172 258.435 382.67 260.552 383.977 261.672H397.173C395.555 259.992 394.559 257.066 394.559 252.46V234.284C394.559 220.278 386.529 215.05 374.951 215.05C366.486 215.05 357.585 218.287 355.344 228.744L366.361 232.416C367.233 229.055 369.287 225.694 374.329 225.694C379.807 225.694 381.487 229.366 381.487 232.292V233.35C379.184 234.408 376.383 234.906 371.715 235.467C360.697 236.774 353.912 240.384 353.912 250.157C353.912 258.56 360.822 262.979 368.976 262.979C374.391 262.979 378.251 261.485 381.985 256.941ZM381.487 247.293C379.993 250.343 376.134 253.207 372.026 253.207C368.291 253.207 367.108 251.277 366.984 249.285C366.797 245.737 369.412 244.243 373.458 243.434C377.815 242.563 379.869 241.816 381.487 241.193V247.293ZM421.138 261.672V226.752H430.786V216.357H421.138V214.365C421.138 210.506 422.943 209.136 425.807 209.136C427.238 209.136 429.541 209.448 430.786 210.008L432.28 199.364C430.786 198.679 425.993 197.994 422.259 197.994C412.673 197.994 408.316 204.966 408.316 214.552V216.357H401.531V226.752H408.316V261.672H421.138ZM462.096 250.717C460.665 251.153 459.357 251.215 458.486 251.215C454.378 251.215 454.378 248.414 454.378 244.492V226.752H463.03V216.357H454.378V203.285L441.306 207.02V216.357H434.895V226.752H441.306V248.414C441.306 257.315 445.103 262.544 454.564 262.544C456.245 262.544 461.1 262.046 462.843 261.05L462.096 250.717Z" fill="white"/>
<path d="M146.013 180.48H316.467C319.274 180.48 321.48 178.274 321.48 175.467V5.01333C321.48 2.20587 319.274 0 316.467 0H146.013C143.206 0 141 2.20587 141 5.01333V175.467C141 178.274 143.206 180.48 146.013 180.48ZM278.967 100.267H283.98C286.788 100.267 288.994 98.0608 288.994 95.2534V10.0267H311.453V170.453H278.967V100.267ZM236.253 100.267H241.267C244.074 100.267 246.28 98.0608 246.28 95.2534V10.0267H258.914V95.2534C258.914 98.0608 261.12 100.267 263.927 100.267H268.94V170.453H236.253V100.267ZM193.74 100.267H198.754C201.561 100.267 203.767 98.0608 203.767 95.2534V10.0267H216.401V95.2534C216.401 98.0608 218.606 100.267 221.414 100.267H226.427V170.453H193.74V100.267ZM151.027 10.0267H173.687V95.2534C173.687 98.0608 175.893 100.267 178.7 100.267H183.714V170.453H151.027V10.0267Z" fill="#FF89BA"/>
<path d="M68.9062 270.125C69.1771 270.125 69.7083 270.125 70.5 270.125C70.5625 270.188 70.9375 271.219 71.625 273.219C73.25 277.615 75.6667 284.208 78.875 293C78.6667 293 78.2396 293 77.5938 293C77.5312 292.917 77.3646 292.458 77.0938 291.625C76.7188 290.646 76.1667 289.167 75.4375 287.188C73.5208 287.188 69.7083 287.188 64 287.188C63.9792 287.208 63.6458 288.083 63 289.812C62.75 290.521 62.3646 291.583 61.8438 293C61.6354 293 61.1979 293 60.5312 293C61.8229 289.479 64.3854 282.469 68.2188 271.969C68.6354 270.823 68.8646 270.208 68.9062 270.125ZM69.6875 271.531C68.8125 273.927 67.0521 278.74 64.4062 285.969C66.1771 285.969 69.7083 285.969 75 285.969C74.1042 283.552 72.3438 278.74 69.7188 271.531C69.6979 271.531 69.6875 271.531 69.6875 271.531ZM96.2488 278.156C96.4363 278.156 96.7904 278.156 97.3113 278.156C99.3321 278.156 100.863 278.885 101.905 280.344C101.926 280.406 101.968 280.5 102.03 280.625C102.051 280.625 102.072 280.625 102.093 280.625C102.551 279.688 103.436 278.979 104.749 278.5C105.415 278.271 106.113 278.156 106.843 278.156C107.072 278.156 107.415 278.156 107.874 278.156C109.811 278.156 111.311 278.833 112.374 280.188C112.957 281 113.249 282.01 113.249 283.219C113.249 285.385 113.249 288.635 113.249 292.969C113.249 292.969 113.238 292.979 113.218 293C113.03 293 112.655 293 112.093 293C112.072 293 112.051 292.99 112.03 292.969C112.03 291.365 112.03 288.167 112.03 283.375C112.03 281.562 111.322 280.354 109.905 279.75C109.259 279.5 108.53 279.375 107.718 279.375C107.551 279.375 107.311 279.375 106.999 279.375C104.978 279.375 103.634 280.115 102.968 281.594C102.78 282.073 102.686 282.625 102.686 283.25C102.686 285.417 102.686 288.656 102.686 292.969C102.686 292.969 102.665 292.979 102.624 293C102.436 293 102.061 293 101.499 293C101.499 293 101.488 292.99 101.468 292.969C101.468 291.365 101.468 288.156 101.468 283.344C101.468 281.385 100.603 280.146 98.8738 279.625C98.3738 279.458 97.7904 279.375 97.1238 279.375C96.9779 279.375 96.7592 279.375 96.4675 279.375C94.4467 279.375 93.1029 280.083 92.4363 281.5C92.2279 281.979 92.1238 282.583 92.1238 283.312C92.1238 285.458 92.1238 288.677 92.1238 292.969C92.1238 292.969 92.1133 292.979 92.0925 293C91.8842 293 91.4988 293 90.9363 293C90.9363 293 90.9154 292.99 90.8738 292.969C90.8738 290.531 90.8738 285.677 90.8738 278.406C90.8946 278.406 90.9154 278.396 90.9363 278.375C91.1238 278.375 91.5092 278.375 92.0925 278.375C92.0925 278.375 92.1029 278.385 92.1238 278.406C92.1238 278.677 92.1238 279.24 92.1238 280.094C93.1863 278.802 94.5613 278.156 96.2488 278.156ZM118.607 278.156C118.795 278.156 119.17 278.156 119.732 278.156C119.732 278.177 119.743 278.198 119.764 278.219C119.764 279.823 119.764 283.042 119.764 287.875C119.764 289.75 120.607 290.969 122.295 291.531C122.837 291.677 123.389 291.75 123.951 291.75C124.18 291.75 124.514 291.75 124.951 291.75C126.722 291.75 127.982 291.104 128.732 289.812C128.982 289.271 129.107 288.615 129.107 287.844C129.107 285.698 129.107 282.49 129.107 278.219C129.128 278.219 129.139 278.198 129.139 278.156C129.347 278.156 129.743 278.156 130.326 278.156C130.326 278.177 130.337 278.198 130.357 278.219C130.357 280.635 130.357 285.479 130.357 292.75C130.337 292.75 130.326 292.76 130.326 292.781C130.118 292.781 129.722 292.781 129.139 292.781C129.139 292.781 129.128 292.771 129.107 292.75C129.107 292.479 129.107 291.927 129.107 291.094C128.024 292.365 126.68 293 125.076 293C124.805 293 124.389 293 123.826 293C122.097 293 120.691 292.406 119.607 291.219C118.899 290.344 118.545 289.271 118.545 288C118.545 285.833 118.545 282.573 118.545 278.219C118.545 278.219 118.566 278.198 118.607 278.156ZM140.06 277.875C140.06 277.875 140.07 277.875 140.091 277.875C141.55 277.875 142.81 278.365 143.872 279.344C144.206 279.677 144.425 279.938 144.529 280.125C144.633 280.229 144.695 280.312 144.716 280.375C144.466 280.521 144.102 280.719 143.622 280.969C143.331 280.49 142.904 280.073 142.341 279.719C141.654 279.323 140.904 279.125 140.091 279.125C138.945 279.125 137.997 279.417 137.247 280C136.956 280.271 136.789 280.469 136.747 280.594C136.435 281.031 136.279 281.49 136.279 281.969C136.279 281.99 136.279 282.031 136.279 282.094C136.279 282.76 136.602 283.281 137.247 283.656C137.56 283.865 138.018 284.073 138.622 284.281C139.435 284.531 140.466 284.771 141.716 285C142.216 285.146 142.612 285.302 142.904 285.469C143.175 285.573 143.456 285.74 143.747 285.969C143.997 286.177 144.206 286.385 144.372 286.594C144.872 287.281 145.122 288.031 145.122 288.844C145.122 289.76 144.8 290.615 144.154 291.406C143.904 291.698 143.716 291.896 143.591 292C143.216 292.25 142.904 292.427 142.654 292.531C141.8 292.948 140.904 293.156 139.966 293.156C138.654 293.156 137.466 292.792 136.404 292.062C136.216 291.938 135.966 291.708 135.654 291.375C135.612 291.333 135.55 291.26 135.466 291.156C135.154 290.802 134.925 290.5 134.779 290.25C134.737 290.146 134.685 290.042 134.622 289.938C135.018 289.729 135.393 289.542 135.747 289.375C136.268 290.438 137.07 291.177 138.154 291.594C138.737 291.802 139.341 291.906 139.966 291.906C140.904 291.906 141.758 291.677 142.529 291.219C143.091 290.865 143.487 290.375 143.716 289.75C143.82 289.438 143.872 289.146 143.872 288.875C143.872 288.854 143.872 288.823 143.872 288.781C143.872 288.156 143.622 287.583 143.122 287.062C142.727 286.729 142.279 286.479 141.779 286.312C141.55 286.25 141.039 286.146 140.247 286C138.685 285.646 137.602 285.281 136.997 284.906C135.685 284.281 135.029 283.312 135.029 282C135.029 281.062 135.383 280.208 136.091 279.438C136.362 279.146 136.581 278.958 136.747 278.875C137.664 278.208 138.768 277.875 140.06 277.875ZM150.731 278.156C150.731 280.635 150.731 285.583 150.731 293C150.731 293 150.721 293 150.7 293C150.512 293 150.117 293 149.512 293C149.512 290.521 149.512 285.573 149.512 278.156C149.7 278.156 150.106 278.156 150.731 278.156ZM150.044 270.125C150.065 270.125 150.106 270.125 150.169 270.125C150.419 270.125 150.658 270.24 150.887 270.469C151.033 270.656 151.106 270.844 151.106 271.031C151.106 271.073 151.106 271.135 151.106 271.219C151.106 271.448 150.992 271.667 150.762 271.875C150.575 272.042 150.367 272.125 150.137 272.125C149.762 272.125 149.471 271.958 149.262 271.625C149.179 271.458 149.137 271.302 149.137 271.156C149.137 271.135 149.137 271.115 149.137 271.094C149.137 270.781 149.273 270.521 149.544 270.312C149.71 270.188 149.877 270.125 150.044 270.125ZM162.027 278.156C162.027 278.156 162.048 278.156 162.09 278.156C164.027 278.156 165.725 278.979 167.184 280.625C167.288 280.792 167.455 281.042 167.684 281.375C167.059 281.792 166.725 282 166.684 282C165.434 280.25 163.882 279.375 162.027 279.375C160.277 279.375 158.788 280.198 157.559 281.844C156.809 283.01 156.434 284.25 156.434 285.562C156.434 287.604 157.225 289.302 158.809 290.656C159.809 291.406 160.892 291.781 162.059 291.781C163.871 291.781 165.392 290.927 166.621 289.219C166.663 289.156 166.694 289.104 166.715 289.062C167.361 289.438 167.694 289.656 167.715 289.719C166.861 291.115 165.632 292.115 164.027 292.719C163.361 292.906 162.694 293 162.027 293C160.173 293 158.538 292.25 157.121 290.75C155.85 289.25 155.215 287.542 155.215 285.625C155.215 285.604 155.215 285.573 155.215 285.531C155.215 283.51 155.923 281.729 157.34 280.188C158.715 278.833 160.277 278.156 162.027 278.156ZM180.37 270.125C180.578 270.125 180.985 270.125 181.589 270.125C181.589 273.938 181.589 281.562 181.589 293C181.38 293 180.974 293 180.37 293C180.37 293 180.36 293 180.339 293C180.339 289.188 180.339 281.562 180.339 270.125C180.36 270.125 180.37 270.125 180.37 270.125ZM186.948 284.438C188.781 284.438 192.458 284.438 197.979 284.438C197.979 284.062 197.77 283.427 197.354 282.531C196.604 281.094 195.552 280.135 194.198 279.656C193.635 279.469 193.052 279.375 192.448 279.375C190.802 279.375 189.385 280.104 188.198 281.562C187.593 282.312 187.177 283.271 186.948 284.438ZM192.448 278.156C192.448 278.156 192.468 278.156 192.51 278.156C194.364 278.156 196 278.927 197.416 280.469C198.687 281.99 199.323 283.708 199.323 285.625C199.323 285.625 199.312 285.625 199.291 285.625C197.229 285.625 193.083 285.625 186.854 285.625C186.854 287.458 187.541 289.042 188.916 290.375C190 291.312 191.187 291.781 192.479 291.781C194.208 291.781 195.666 291.01 196.854 289.469C197.187 288.969 197.448 288.49 197.635 288.031C197.656 288.01 197.666 287.969 197.666 287.906C198.437 288.156 198.823 288.302 198.823 288.344C198.593 288.948 198.291 289.531 197.916 290.094C196.458 292.031 194.635 293 192.448 293C190.385 293 188.614 292.083 187.135 290.25C186.135 288.833 185.635 287.292 185.635 285.625C185.635 285.604 185.635 285.583 185.635 285.562C185.635 283.521 186.343 281.74 187.76 280.219C189.135 278.844 190.698 278.156 192.448 278.156ZM209.494 278.156C209.494 278.156 209.515 278.156 209.556 278.156C211.66 278.156 213.442 279.104 214.9 281C214.962 281.083 215.035 281.198 215.119 281.344C215.119 280.844 215.119 279.844 215.119 278.344C215.14 278.344 215.16 278.323 215.181 278.281C215.369 278.281 215.744 278.281 216.306 278.281C216.306 278.302 216.317 278.323 216.337 278.344C216.337 280.76 216.337 285.583 216.337 292.812C216.337 292.812 216.327 292.833 216.306 292.875C216.119 292.875 215.744 292.875 215.181 292.875C215.181 292.854 215.16 292.833 215.119 292.812C215.119 292.312 215.119 291.312 215.119 289.812C214.306 291.125 213.108 292.073 211.525 292.656C210.858 292.885 210.181 293 209.494 293C207.431 293 205.66 292.083 204.181 290.25C203.181 288.833 202.681 287.292 202.681 285.625C202.681 285.604 202.681 285.573 202.681 285.531C202.681 283.51 203.39 281.729 204.806 280.188C206.181 278.833 207.744 278.156 209.494 278.156ZM203.869 285.562C203.869 287.604 204.66 289.302 206.244 290.656C207.265 291.406 208.348 291.781 209.494 291.781C211.077 291.781 212.452 291.135 213.619 289.844C214.619 288.615 215.119 287.188 215.119 285.562C215.119 283.938 214.587 282.5 213.525 281.25C212.379 280 211.035 279.375 209.494 279.375C207.744 279.375 206.244 280.198 204.994 281.844C204.244 283.01 203.869 284.25 203.869 285.562ZM227.384 278.031C228.363 278.031 229.207 278.271 229.915 278.75C229.748 279.688 229.644 280.156 229.602 280.156C228.769 279.656 227.988 279.406 227.259 279.406C227.238 279.406 227.196 279.406 227.134 279.406C226.175 279.406 225.269 279.708 224.415 280.312C223.915 280.771 223.602 281.135 223.477 281.406C223.123 282.094 222.946 282.792 222.946 283.5C222.946 285.604 222.946 288.76 222.946 292.969C222.946 292.969 222.936 292.979 222.915 293C222.707 293 222.321 293 221.759 293C221.759 293 221.738 292.99 221.696 292.969C221.696 290.531 221.696 285.667 221.696 278.375C221.717 278.375 221.738 278.375 221.759 278.375C221.946 278.375 222.332 278.375 222.915 278.375C222.915 278.375 222.925 278.375 222.946 278.375C222.946 278.667 222.946 279.219 222.946 280.031C222.946 279.99 223.186 279.771 223.665 279.375C224.707 278.479 225.946 278.031 227.384 278.031ZM238.836 278.156C239.024 278.156 239.378 278.156 239.899 278.156C241.899 278.156 243.42 278.885 244.461 280.344C245.003 281.135 245.274 282.073 245.274 283.156C245.274 285.344 245.274 288.615 245.274 292.969C245.274 292.969 245.253 292.979 245.211 293C245.024 293 244.649 293 244.086 293C244.086 293 244.076 292.99 244.055 292.969C244.055 291.365 244.055 288.156 244.055 283.344C244.055 281.385 243.19 280.146 241.461 279.625C240.961 279.458 240.378 279.375 239.711 279.375C239.565 279.375 239.347 279.375 239.055 279.375C237.034 279.375 235.69 280.083 235.024 281.5C234.815 281.979 234.711 282.583 234.711 283.312C234.711 285.458 234.711 288.677 234.711 292.969C234.711 292.969 234.701 292.979 234.68 293C234.472 293 234.086 293 233.524 293C233.524 293 233.503 292.99 233.461 292.969C233.461 290.531 233.461 285.677 233.461 278.406C233.482 278.406 233.503 278.396 233.524 278.375C233.711 278.375 234.097 278.375 234.68 278.375C234.68 278.375 234.69 278.385 234.711 278.406C234.711 278.677 234.711 279.24 234.711 280.094C235.774 278.802 237.149 278.156 238.836 278.156ZM251.914 278.156C251.914 280.635 251.914 285.583 251.914 293C251.914 293 251.903 293 251.883 293C251.695 293 251.299 293 250.695 293C250.695 290.521 250.695 285.573 250.695 278.156C250.883 278.156 251.289 278.156 251.914 278.156ZM251.226 270.125C251.247 270.125 251.289 270.125 251.351 270.125C251.601 270.125 251.841 270.24 252.07 270.469C252.216 270.656 252.289 270.844 252.289 271.031C252.289 271.073 252.289 271.135 252.289 271.219C252.289 271.448 252.174 271.667 251.945 271.875C251.758 272.042 251.549 272.125 251.32 272.125C250.945 272.125 250.653 271.958 250.445 271.625C250.362 271.458 250.32 271.302 250.32 271.156C250.32 271.135 250.32 271.115 250.32 271.094C250.32 270.781 250.455 270.521 250.726 270.312C250.893 270.188 251.06 270.125 251.226 270.125ZM262.741 278.156C262.929 278.156 263.283 278.156 263.804 278.156C265.804 278.156 267.325 278.885 268.366 280.344C268.908 281.135 269.179 282.073 269.179 283.156C269.179 285.344 269.179 288.615 269.179 292.969C269.179 292.969 269.158 292.979 269.116 293C268.929 293 268.554 293 267.991 293C267.991 293 267.981 292.99 267.96 292.969C267.96 291.365 267.96 288.156 267.96 283.344C267.96 281.385 267.095 280.146 265.366 279.625C264.866 279.458 264.283 279.375 263.616 279.375C263.47 279.375 263.252 279.375 262.96 279.375C260.939 279.375 259.595 280.083 258.929 281.5C258.72 281.979 258.616 282.583 258.616 283.312C258.616 285.458 258.616 288.677 258.616 292.969C258.616 292.969 258.606 292.979 258.585 293C258.377 293 257.991 293 257.429 293C257.429 293 257.408 292.99 257.366 292.969C257.366 290.531 257.366 285.677 257.366 278.406C257.387 278.406 257.408 278.396 257.429 278.375C257.616 278.375 258.002 278.375 258.585 278.375C258.585 278.375 258.595 278.385 258.616 278.406C258.616 278.677 258.616 279.24 258.616 280.094C259.679 278.802 261.054 278.156 262.741 278.156ZM275.256 283.344C275.256 283.365 275.256 283.406 275.256 283.469C275.256 284.177 275.475 284.875 275.913 285.562C276.038 285.75 276.246 285.99 276.538 286.281C276.996 286.677 277.475 286.969 277.975 287.156C278.413 287.323 278.871 287.406 279.35 287.406C279.371 287.406 279.392 287.406 279.413 287.406C280.35 287.406 281.215 287.104 282.006 286.5C282.34 286.188 282.579 285.948 282.725 285.781C283.246 285.073 283.506 284.271 283.506 283.375C283.506 282.562 283.256 281.802 282.756 281.094C282.465 280.698 282.131 280.375 281.756 280.125C281.027 279.625 280.235 279.375 279.381 279.375C278.381 279.375 277.475 279.708 276.663 280.375C276.329 280.688 276.131 280.896 276.069 281C275.881 281.25 275.735 281.5 275.631 281.75C275.381 282.292 275.256 282.823 275.256 283.344ZM277.381 291.906C275.715 292.885 274.881 293.948 274.881 295.094C274.881 295.094 274.881 295.104 274.881 295.125C274.881 295.792 275.152 296.427 275.694 297.031C275.985 297.323 276.215 297.51 276.381 297.594C277.319 298.198 278.496 298.5 279.913 298.5C281.392 298.5 282.631 298.125 283.631 297.375C283.777 297.292 283.954 297.125 284.163 296.875C284.496 296.542 284.735 296.156 284.881 295.719C284.965 295.427 285.006 295.167 285.006 294.938C285.006 294.917 285.006 294.896 285.006 294.875C285.006 294.292 284.798 293.75 284.381 293.25C284.131 293.021 283.954 292.865 283.85 292.781C283.579 292.615 283.277 292.479 282.944 292.375C282.465 292.229 282.163 292.156 282.038 292.156C281.6 292.073 281.204 292.031 280.85 292.031C280.517 292.052 280.017 292.062 279.35 292.062C278.642 292.062 277.985 292.01 277.381 291.906ZM279.288 278.156C279.329 278.156 279.392 278.156 279.475 278.156C280.475 278.156 281.444 278.448 282.381 279.031C282.59 279.177 282.788 279.333 282.975 279.5C283.225 278.979 283.663 278.594 284.288 278.344C284.621 278.219 284.944 278.156 285.256 278.156C285.36 278.156 285.496 278.156 285.663 278.156C285.683 278.156 285.694 278.156 285.694 278.156C285.694 278.365 285.694 278.771 285.694 279.375C285.694 279.375 285.683 279.375 285.663 279.375C285.621 279.375 285.506 279.375 285.319 279.375C284.777 279.375 284.371 279.573 284.1 279.969C283.975 280.24 283.913 280.458 283.913 280.625C284.475 281.479 284.756 282.396 284.756 283.375C284.756 283.375 284.756 283.396 284.756 283.438C284.756 284.625 284.35 285.708 283.538 286.688C283.329 286.958 283.079 287.219 282.788 287.469C282.454 287.719 282.163 287.896 281.913 288C281.1 288.417 280.298 288.625 279.506 288.625C279.444 288.625 279.371 288.625 279.288 288.625C278.413 288.625 277.538 288.385 276.663 287.906C276.204 288.323 275.975 288.812 275.975 289.375C275.975 289.771 276.1 290.062 276.35 290.25C276.788 290.646 277.85 290.844 279.538 290.844C279.788 290.823 280.152 290.812 280.631 290.812C282.673 290.812 284.204 291.323 285.225 292.344C285.267 292.406 285.34 292.5 285.444 292.625C285.84 293.146 286.09 293.688 286.194 294.25C286.235 294.438 286.256 294.615 286.256 294.781C286.256 294.844 286.256 294.917 286.256 295C286.256 295.604 286.058 296.24 285.663 296.906C285.058 297.969 284.058 298.76 282.663 299.281C281.808 299.594 280.933 299.75 280.038 299.75C279.996 299.75 279.933 299.75 279.85 299.75C278.267 299.75 276.871 299.375 275.663 298.625C274.808 298.042 274.204 297.292 273.85 296.375C273.704 295.938 273.631 295.531 273.631 295.156C273.631 295.135 273.631 295.094 273.631 295.031C273.631 294.156 273.996 293.281 274.725 292.406C275.079 292.052 275.298 291.844 275.381 291.781C275.506 291.677 275.673 291.562 275.881 291.438C275.11 290.979 274.725 290.292 274.725 289.375C274.725 289.354 274.725 289.344 274.725 289.344C274.725 288.531 275.038 287.802 275.663 287.156C275.538 287.031 275.402 286.896 275.256 286.75C274.444 285.75 274.038 284.625 274.038 283.375C274.038 282.146 274.444 281.031 275.256 280.031C275.506 279.76 275.746 279.542 275.975 279.375C276.246 279.146 276.496 278.969 276.725 278.844C277.579 278.385 278.433 278.156 279.288 278.156ZM299.38 278.156C299.443 278.198 299.63 278.771 299.943 279.875C300.755 282.479 301.974 286.396 303.599 291.625C303.62 291.562 303.911 290.635 304.474 288.844C305.224 286.469 306.349 282.906 307.849 278.156C307.953 278.156 308.161 278.156 308.474 278.156C308.515 278.156 308.64 278.531 308.849 279.281C309.703 282.031 310.995 286.146 312.724 291.625C312.745 291.562 313.036 290.635 313.599 288.844C314.328 286.469 315.422 282.906 316.88 278.156C316.901 278.156 316.911 278.156 316.911 278.156C317.14 278.156 317.568 278.156 318.193 278.156C318.193 278.156 318.203 278.177 318.224 278.219C317.453 280.677 315.901 285.604 313.568 293C313.276 293 312.713 293 311.88 293C311.859 293 311.703 292.531 311.411 291.594C310.682 289.281 309.599 285.823 308.161 281.219C308.14 281.24 307.963 281.792 307.63 282.875C306.943 285.125 305.89 288.5 304.474 293C304.182 293 303.609 293 302.755 293C302.734 293 302.474 292.167 301.974 290.5C301.12 287.771 299.828 283.656 298.099 278.156C298.307 278.156 298.734 278.156 299.38 278.156ZM322.02 284.438C323.853 284.438 327.53 284.438 333.051 284.438C333.051 284.062 332.843 283.427 332.426 282.531C331.676 281.094 330.624 280.135 329.27 279.656C328.707 279.469 328.124 279.375 327.52 279.375C325.874 279.375 324.457 280.104 323.27 281.562C322.666 282.312 322.249 283.271 322.02 284.438ZM327.52 278.156C327.52 278.156 327.541 278.156 327.582 278.156C329.437 278.156 331.072 278.927 332.489 280.469C333.76 281.99 334.395 283.708 334.395 285.625C334.395 285.625 334.385 285.625 334.364 285.625C332.301 285.625 328.155 285.625 321.926 285.625C321.926 287.458 322.614 289.042 323.989 290.375C325.072 291.312 326.26 291.781 327.551 291.781C329.28 291.781 330.739 291.01 331.926 289.469C332.26 288.969 332.52 288.49 332.707 288.031C332.728 288.01 332.739 287.969 332.739 287.906C333.51 288.156 333.895 288.302 333.895 288.344C333.666 288.948 333.364 289.531 332.989 290.094C331.53 292.031 329.707 293 327.52 293C325.457 293 323.687 292.083 322.207 290.25C321.207 288.833 320.707 287.292 320.707 285.625C320.707 285.604 320.707 285.583 320.707 285.562C320.707 283.521 321.416 281.74 322.832 280.219C324.207 278.844 325.77 278.156 327.52 278.156ZM339.941 285.594C339.941 287.219 340.483 288.677 341.566 289.969C342.733 291.24 344.108 291.875 345.691 291.875C347.42 291.875 348.889 291.104 350.098 289.562C350.973 288.354 351.41 287.01 351.41 285.531C351.41 283.49 350.598 281.771 348.973 280.375C347.931 279.625 346.827 279.25 345.66 279.25C343.952 279.25 342.483 280.01 341.254 281.531C340.379 282.74 339.941 284.094 339.941 285.594ZM338.754 270.125C338.941 270.125 339.327 270.125 339.91 270.125C339.91 270.125 339.92 270.135 339.941 270.156C339.941 272.01 339.941 275.708 339.941 281.25C340.775 279.917 341.983 278.948 343.566 278.344C344.254 278.115 344.962 278 345.691 278C347.65 278 349.358 278.823 350.816 280.469C352.025 281.969 352.629 283.635 352.629 285.469C352.629 285.51 352.629 285.573 352.629 285.656C352.629 287.74 351.858 289.594 350.316 291.219C348.9 292.49 347.389 293.125 345.785 293.125C345.743 293.125 345.681 293.125 345.598 293.125C343.556 293.125 341.785 292.208 340.285 290.375C340.223 290.271 340.108 290.104 339.941 289.875C339.941 290.396 339.941 291.427 339.941 292.969C339.941 292.969 339.931 292.979 339.91 293C339.702 293 339.316 293 338.754 293C338.754 293 338.733 292.99 338.691 292.969C338.691 289.177 338.691 281.573 338.691 270.156C338.712 270.156 338.733 270.146 338.754 270.125ZM361.425 277.875C361.425 277.875 361.435 277.875 361.456 277.875C362.915 277.875 364.175 278.365 365.237 279.344C365.571 279.677 365.79 279.938 365.894 280.125C365.998 280.229 366.06 280.312 366.081 280.375C365.831 280.521 365.467 280.719 364.987 280.969C364.696 280.49 364.269 280.073 363.706 279.719C363.019 279.323 362.269 279.125 361.456 279.125C360.31 279.125 359.362 279.417 358.612 280C358.321 280.271 358.154 280.469 358.112 280.594C357.8 281.031 357.644 281.49 357.644 281.969C357.644 281.99 357.644 282.031 357.644 282.094C357.644 282.76 357.967 283.281 358.612 283.656C358.925 283.865 359.383 284.073 359.987 284.281C360.8 284.531 361.831 284.771 363.081 285C363.581 285.146 363.977 285.302 364.269 285.469C364.54 285.573 364.821 285.74 365.112 285.969C365.362 286.177 365.571 286.385 365.737 286.594C366.237 287.281 366.487 288.031 366.487 288.844C366.487 289.76 366.165 290.615 365.519 291.406C365.269 291.698 365.081 291.896 364.956 292C364.581 292.25 364.269 292.427 364.019 292.531C363.165 292.948 362.269 293.156 361.331 293.156C360.019 293.156 358.831 292.792 357.769 292.062C357.581 291.938 357.331 291.708 357.019 291.375C356.977 291.333 356.915 291.26 356.831 291.156C356.519 290.802 356.29 290.5 356.144 290.25C356.102 290.146 356.05 290.042 355.987 289.938C356.383 289.729 356.758 289.542 357.112 289.375C357.633 290.438 358.435 291.177 359.519 291.594C360.102 291.802 360.706 291.906 361.331 291.906C362.269 291.906 363.123 291.677 363.894 291.219C364.456 290.865 364.852 290.375 365.081 289.75C365.185 289.438 365.237 289.146 365.237 288.875C365.237 288.854 365.237 288.823 365.237 288.781C365.237 288.156 364.987 287.583 364.487 287.062C364.092 286.729 363.644 286.479 363.144 286.312C362.915 286.25 362.404 286.146 361.612 286C360.05 285.646 358.967 285.281 358.362 284.906C357.05 284.281 356.394 283.312 356.394 282C356.394 281.062 356.748 280.208 357.456 279.438C357.727 279.146 357.946 278.958 358.112 278.875C359.029 278.208 360.133 277.875 361.425 277.875ZM372.096 278.156C372.096 280.635 372.096 285.583 372.096 293C372.096 293 372.086 293 372.065 293C371.878 293 371.482 293 370.878 293C370.878 290.521 370.878 285.573 370.878 278.156C371.065 278.156 371.471 278.156 372.096 278.156ZM371.409 270.125C371.43 270.125 371.471 270.125 371.534 270.125C371.784 270.125 372.023 270.24 372.253 270.469C372.398 270.656 372.471 270.844 372.471 271.031C372.471 271.073 372.471 271.135 372.471 271.219C372.471 271.448 372.357 271.667 372.128 271.875C371.94 272.042 371.732 272.125 371.503 272.125C371.128 272.125 370.836 271.958 370.628 271.625C370.544 271.458 370.503 271.302 370.503 271.156C370.503 271.135 370.503 271.115 370.503 271.094C370.503 270.781 370.638 270.521 370.909 270.312C371.075 270.188 371.242 270.125 371.409 270.125ZM378.58 270.125C378.788 270.125 379.195 270.125 379.799 270.125C379.799 271.479 379.799 274.156 379.799 278.156C380.549 278.156 382.017 278.156 384.205 278.156C384.205 278.365 384.205 278.771 384.205 279.375C383.476 279.375 382.007 279.375 379.799 279.375C379.799 281 379.799 284.24 379.799 289.094C379.799 289.844 379.986 290.469 380.361 290.969C380.528 291.177 380.674 291.312 380.799 291.375C381.195 291.646 381.57 291.781 381.924 291.781C381.945 291.781 381.965 291.781 381.986 291.781C382.445 291.781 383.049 291.615 383.799 291.281C383.882 291.24 383.934 291.219 383.955 291.219C384.08 291.448 384.257 291.812 384.486 292.312C384.236 292.438 383.83 292.594 383.267 292.781C382.767 292.927 382.361 293 382.049 293C382.007 293 381.945 293 381.861 293C381.34 293 380.788 292.833 380.205 292.5C380.08 292.417 379.872 292.24 379.58 291.969C379.267 291.615 379.038 291.219 378.892 290.781C378.684 290.24 378.58 289.698 378.58 289.156C378.58 286.99 378.58 283.729 378.58 279.375C378.101 279.375 377.142 279.375 375.705 279.375C375.705 279.375 375.695 279.375 375.674 279.375C375.674 279.167 375.674 278.76 375.674 278.156C375.695 278.156 375.705 278.156 375.705 278.156C376.184 278.156 377.142 278.156 378.58 278.156C378.58 276.823 378.58 274.146 378.58 270.125ZM388.501 284.438C390.335 284.438 394.012 284.438 399.533 284.438C399.533 284.062 399.324 283.427 398.908 282.531C398.158 281.094 397.105 280.135 395.751 279.656C395.189 279.469 394.605 279.375 394.001 279.375C392.355 279.375 390.939 280.104 389.751 281.562C389.147 282.312 388.73 283.271 388.501 284.438ZM394.001 278.156C394.001 278.156 394.022 278.156 394.064 278.156C395.918 278.156 397.553 278.927 398.97 280.469C400.241 281.99 400.876 283.708 400.876 285.625C400.876 285.625 400.866 285.625 400.845 285.625C398.783 285.625 394.637 285.625 388.408 285.625C388.408 287.458 389.095 289.042 390.47 290.375C391.553 291.312 392.741 291.781 394.033 291.781C395.762 291.781 397.22 291.01 398.408 289.469C398.741 288.969 399.001 288.49 399.189 288.031C399.21 288.01 399.22 287.969 399.22 287.906C399.991 288.156 400.376 288.302 400.376 288.344C400.147 288.948 399.845 289.531 399.47 290.094C398.012 292.031 396.189 293 394.001 293C391.939 293 390.168 292.083 388.689 290.25C387.689 288.833 387.189 287.292 387.189 285.625C387.189 285.604 387.189 285.583 387.189 285.562C387.189 283.521 387.897 281.74 389.314 280.219C390.689 278.844 392.251 278.156 394.001 278.156Z" fill="white"/>
</svg>
