<svg width="145" height="17" viewBox="0 0 145 17" fill="none" xmlns="http://www.w3.org/2000/svg">
<path d="M24.8567 8.5C24.8567 5.16476 26.4428 3.17333 29.014 3.17333C30.8338 3.17333 32.2864 3.98286 32.7873 6.02286L36.4436 5.03524C35.6089 1.76476 32.8206 0 29.014 0C23.8717 0 21 3.5781 21 8.5C21 13.4219 23.9885 17 29.1309 17C33.1713 17 35.4252 15.1219 36.4436 11.9971L32.7873 10.9933C32.2029 12.92 30.9507 13.8267 29.1309 13.8267C26.5597 13.8267 24.8567 11.8352 24.8567 8.5ZM42.1703 16.66V10.2486C42.1703 8.3381 43.1888 7.38286 44.3909 7.38286C45.7599 7.38286 46.2608 8.16 46.2608 9.52V16.66H49.7669V9.42286C49.7669 6.62191 48.7151 4.53333 45.3592 4.53333C43.9067 4.53333 42.9884 5.05143 42.1703 6.34667V0.34H38.6642V16.66H42.1703ZM51.6369 10.7667C51.6369 15.1219 54.4251 17 57.6808 17C60.9197 17 63.7079 15.1219 63.7079 10.7667C63.7079 6.41143 60.9197 4.53333 57.6808 4.53333C54.4251 4.53333 51.6369 6.41143 51.6369 10.7667ZM55.143 10.7667C55.143 8.56476 56.0613 7.36667 57.6808 7.36667C59.2836 7.36667 60.2018 8.56476 60.2018 10.7667C60.2018 12.9686 59.2836 14.1667 57.6808 14.1667C56.0613 14.1667 55.143 12.9686 55.143 10.7667ZM69.084 16.66V11.4305C69.084 9.13143 70.0858 7.70667 72.0893 7.70667C72.8239 7.70667 73.3581 7.93333 73.8256 8.16L74.3432 5.11619C73.7755 4.69524 73.1244 4.53333 72.1894 4.53333C70.4364 4.53333 69.635 5.32667 68.867 6.91333V4.87333H65.5779V16.66H69.084ZM83.1085 0.34V5.89333C82.4073 4.82476 81.2553 4.53333 80.2702 4.53333C77.3818 4.53333 74.9275 6.6381 74.9275 10.7667C74.9275 14.8952 77.265 17 80.1533 17C81.5391 17 82.641 16.4171 83.3423 15.2838V16.66H86.6146V0.34H83.1085ZM83.3589 10.7667C83.3589 13.0819 82.257 14.1667 80.888 14.1667C79.5022 14.1667 78.4337 13.0819 78.4337 10.7667C78.4337 8.45143 79.4187 7.36667 80.9047 7.36667C82.4073 7.36667 83.3589 8.45143 83.3589 10.7667ZM92.6919 8.5C92.6919 5.16476 94.278 3.17333 96.8492 3.17333C98.669 3.17333 100.122 3.98286 100.606 6.02286L104.279 5.03524C103.444 1.76476 100.656 0 96.8492 0C91.7069 0 88.8352 3.5781 88.8352 8.5C88.8352 13.4219 91.8237 17 96.9661 17C101.006 17 103.26 15.1219 104.279 11.9971L100.606 10.9933C100.021 12.92 98.7859 13.8267 96.9661 13.8267C94.3949 13.8267 92.6919 11.8352 92.6919 8.5ZM109.772 16.66V11.4305C109.772 9.13143 110.774 7.70667 112.794 7.70667C113.512 7.70667 114.046 7.93333 114.513 8.16L115.031 5.11619C114.48 4.69524 113.812 4.53333 112.877 4.53333C111.124 4.53333 110.339 5.32667 109.571 6.91333V4.87333H106.266V16.66H109.772ZM123.262 15.4295C123.312 15.8181 123.446 16.3686 123.796 16.66H127.336C126.902 16.2229 126.635 15.4619 126.635 14.2638V9.53619C126.635 5.89333 124.481 4.53333 121.375 4.53333C119.105 4.53333 116.717 5.37524 116.116 8.09524L119.071 9.05048C119.305 8.17619 119.856 7.3019 121.208 7.3019C122.678 7.3019 123.128 8.25714 123.128 9.0181V9.29333C122.511 9.56857 121.759 9.6981 120.507 9.84381C117.552 10.1838 115.732 11.1229 115.732 13.6648C115.732 15.8505 117.585 17 119.773 17C121.225 17 122.26 16.6114 123.262 15.4295ZM123.128 12.92C122.728 13.7133 121.693 14.4581 120.591 14.4581C119.589 14.4581 119.272 13.9562 119.238 13.4381C119.188 12.5152 119.889 12.1267 120.975 11.9162C122.143 11.6895 122.694 11.4952 123.128 11.3333V12.92ZM133.764 16.66V7.57714H136.352V4.87333H133.764V4.35524C133.764 3.35143 134.248 2.99524 135.016 2.99524C135.4 2.99524 136.018 3.07619 136.352 3.2219L136.752 0.453333C136.352 0.275238 135.066 0.0971429 134.064 0.0971429C131.493 0.0971429 130.324 1.91048 130.324 4.40381V4.87333H128.504V7.57714H130.324V16.66H133.764ZM144.75 13.8105C144.366 13.9238 144.015 13.94 143.781 13.94C142.679 13.94 142.679 13.2114 142.679 12.1914V7.57714H145V4.87333H142.679V1.47333L139.173 2.44476V4.87333H137.453V7.57714H139.173V13.2114C139.173 15.5267 140.192 16.8867 142.729 16.8867C143.18 16.8867 144.482 16.7571 144.95 16.4981L144.75 13.8105Z" fill="white"/>
<path d="M0.472222 17H16.5278C16.7922 17 17 16.7922 17 16.5278V0.472222C17 0.207778 16.7922 0 16.5278 0H0.472222C0.207778 0 0 0.207778 0 0.472222V16.5278C0 16.7922 0.207778 17 0.472222 17ZM12.9956 9.44444H13.4678C13.7322 9.44444 13.94 9.23667 13.94 8.97222V0.944444H16.0556V16.0556H12.9956V9.44444ZM8.97222 9.44444H9.44444C9.70889 9.44444 9.91667 9.23667 9.91667 8.97222V0.944444H11.1067V8.97222C11.1067 9.23667 11.3144 9.44444 11.5789 9.44444H12.0511V16.0556H8.97222V9.44444ZM4.96778 9.44444H5.44C5.70444 9.44444 5.91222 9.23667 5.91222 8.97222V0.944444H7.10222V8.97222C7.10222 9.23667 7.31 9.44444 7.57444 9.44444H8.04667V16.0556H4.96778V9.44444ZM0.944444 0.944444H3.07889V8.97222C3.07889 9.23667 3.28667 9.44444 3.55111 9.44444H4.02333V16.0556H0.944444V0.944444Z" fill="#FF89BA"/>
</svg>
