<svg width="17" height="17" viewBox="0 0 17 17" fill="none" xmlns="http://www.w3.org/2000/svg">
<path d="M0.472222 17H16.5278C16.7922 17 17 16.7922 17 16.5278V0.472222C17 0.207778 16.7922 0 16.5278 0H0.472222C0.207778 0 0 0.207778 0 0.472222V16.5278C0 16.7922 0.207778 17 0.472222 17ZM12.9956 9.44444H13.4678C13.7322 9.44444 13.94 9.23667 13.94 8.97222V0.944444H16.0556V16.0556H12.9956V9.44444ZM8.97222 9.44444H9.44444C9.70889 9.44444 9.91667 9.23667 9.91667 8.97222V0.944444H11.1067V8.97222C11.1067 9.23667 11.3144 9.44444 11.5789 9.44444H12.0511V16.0556H8.97222V9.44444ZM4.96778 9.44444H5.44C5.70444 9.44444 5.91222 9.23667 5.91222 8.97222V0.944444H7.10222V8.97222C7.10222 9.23667 7.31 9.44444 7.57444 9.44444H8.04667V16.0556H4.96778V9.44444ZM0.944444 0.944444H3.07889V8.97222C3.07889 9.23667 3.28667 9.44444 3.55111 9.44444H4.02333V16.0556H0.944444V0.944444Z" fill="#FF89BA"/>
</svg>
